<svg width="124" height="124" viewBox="0 0 124 124" fill="none" xmlns="http://www.w3.org/2000/svg">
<path d="M0 62.0001C0 27.7584 27.7584 0 62.0001 0C96.2418 0 124 27.7584 124 62.0001V124H0V62.0001Z" fill="#F3AFA8"/>
<path d="M32.1685 98.0561L38.7668 98.0561L38.7668 91.228L32.1685 91.228L32.1685 98.0561ZM87.1019 42.0455C87.1019 41.5836 86.7401 41.2092 86.2938 41.2092L79.0207 41.2092C78.5744 41.2092 78.2126 41.5836 78.2126 42.0455C78.2126 42.5073 78.5744 42.8817 79.0207 42.8817L85.4857 42.8817L85.4857 49.5719C85.4857 50.0337 85.8475 50.4081 86.2938 50.4081C86.7401 50.4081 87.1019 50.0337 87.1019 49.5719L87.1019 42.0455ZM36.0391 95.2334L86.8652 42.6368L85.7223 41.4541L34.8962 94.0508L36.0391 95.2334Z" fill="#2D2D2D"/>
</svg>
